<svg width="22" height="17" viewBox="0 0 22 17" fill="none" xmlns="http://www.w3.org/2000/svg">
<path fill-rule="evenodd" clip-rule="evenodd" d="M16.2489 0.483274C15.6045 1.12764 15.6045 2.17236 16.2489 2.81673L17.4821 4.05L16.2489 5.28327C15.6045 5.92764 15.6045 6.97236 16.2489 7.61673C16.8932 8.26109 17.9379 8.26109 18.5823 7.61673L20.9823 5.21673C21.6267 4.57236 21.6267 3.52764 20.9823 2.88327L18.5823 0.483274C17.9379 -0.161091 16.8932 -0.161091 16.2489 0.483274Z" fill="#313F61"/>
<path fill-rule="evenodd" clip-rule="evenodd" d="M16.7489 16.5167C16.1045 15.8724 16.1045 14.8276 16.7489 14.1833L17.9821 12.95L16.7489 11.7167C16.1045 11.0724 16.1045 10.0276 16.7489 9.38327C17.3932 8.73891 18.4379 8.73891 19.0823 9.38327L21.4823 11.7833C22.1267 12.4276 22.1267 13.4724 21.4823 14.1167L19.0823 16.5167C18.4379 17.1611 17.3932 17.1611 16.7489 16.5167Z" fill="#313F61"/>
<path fill-rule="evenodd" clip-rule="evenodd" d="M11.4648 3H19C19.5523 3 20 3.44772 20 4C20 4.55228 19.5523 5 19 5H12.5352L6.53518 14H1C0.447715 14 0 13.5523 0 13C0 12.4477 0.447715 12 1 12H5.46482L11.4648 3Z" fill="#313F61"/>
<path fill-rule="evenodd" clip-rule="evenodd" d="M11.9648 14H19.5C20.0523 14 20.5 13.5523 20.5 13C20.5 12.4477 20.0523 12 19.5 12H13.0352L7.03518 3H1C0.447715 3 0 3.44771 0 4C0 4.55229 0.447715 5 1 5H5.96482L11.9648 14Z" fill="#313F61"/>
</svg>
