<svg width="24" height="24" viewBox="0 0 24 24" fill="none" xmlns="http://www.w3.org/2000/svg">
<path fill-rule="evenodd" clip-rule="evenodd" d="M2 3C2.55228 3 3 3.44772 3 4V18C3 18.5523 3.44772 19 4 19H22C22.5523 19 23 19.4477 23 20C23 20.5523 22.5523 21 22 21H4C2.34315 21 1 19.6569 1 18V4C1 3.44772 1.44772 3 2 3Z" fill="#313F61"/>
<path fill-rule="evenodd" clip-rule="evenodd" d="M20.4961 5.13181C20.9756 5.40582 21.1422 6.01667 20.8682 6.49619L17.6817 12.0726C16.9722 13.3142 15.4849 13.8825 14.1283 13.4302L11.0068 12.3897C10.6093 12.2572 10.1714 12.3866 9.90966 12.7137L6.78084 16.6247C6.43584 17.056 5.80654 17.1259 5.37528 16.7809C4.94402 16.4359 4.8741 15.8066 5.21911 15.3754L8.34792 11.4643C9.13309 10.4829 10.4468 10.0949 11.6392 10.4924L14.7607 11.5329C15.213 11.6836 15.7087 11.4942 15.9452 11.0803L19.1317 5.50391C19.4057 5.02439 20.0166 4.8578 20.4961 5.13181Z" fill="#313F61"/>
</svg>
