<svg width="24" height="24" viewBox="0 0 24 24" fill="none" xmlns="http://www.w3.org/2000/svg">
<path fill-rule="evenodd" clip-rule="evenodd" d="M10.9826 15.0007C11.526 14.9799 11.9831 15.4104 12.0036 15.9623C12.0499 17.2065 12.1148 18.1145 12.1787 18.7656C12.2416 19.4068 12.6227 19.7926 13.154 19.8586C13.7805 19.9363 14.6642 20 15.8769 20C17.0896 20 17.9734 19.9363 18.5998 19.8586C19.1308 19.7926 19.5122 19.4067 19.5751 18.7653C19.6936 17.5568 19.8154 15.4688 19.8154 12C19.8154 8.53118 19.6936 6.44321 19.5751 5.23468C19.5122 4.59333 19.1309 4.20736 18.5998 4.14144C17.9734 4.06366 17.0896 4 15.8769 4C14.6642 4 13.7805 4.06365 13.154 4.14143C12.6227 4.20739 12.2416 4.59318 12.1787 5.23437C12.1148 5.88545 12.0499 6.79354 12.0036 8.03772C11.9831 8.58961 11.526 9.02012 10.9826 8.99929C10.4392 8.97845 10.0153 8.51417 10.0358 7.96228C10.0833 6.68524 10.1506 5.73543 10.2192 5.03611C10.3634 3.56595 11.3726 2.3477 12.9151 2.15621C13.6331 2.06707 14.5977 2 15.8769 2C17.1561 2 18.1208 2.06707 18.8388 2.15622C20.3814 2.34774 21.3904 3.56655 21.5346 5.03643C21.6616 6.33068 21.7846 8.48847 21.7846 12C21.7846 15.5115 21.6616 17.6693 21.5346 18.9636C21.3904 20.4334 20.3814 21.6523 18.8388 21.8438C18.1208 21.9329 17.1561 22 15.8769 22C14.5977 22 13.6331 21.9329 12.9151 21.8438C11.3726 21.6523 10.3634 20.4341 10.2192 18.9639C10.1506 18.2646 10.0833 17.3148 10.0358 16.0377C10.0153 15.4858 10.4392 15.0215 10.9826 15.0007Z" fill="#313F61"/>
<path fill-rule="evenodd" clip-rule="evenodd" d="M7.21928 14.7929C7.6038 15.1834 7.6038 15.8166 7.21928 16.2071C6.83477 16.5976 6.21134 16.5976 5.82683 16.2071L2.38067 12.7071C1.99616 12.3166 1.99616 11.6834 2.38067 11.2929L5.82683 7.79289C6.21134 7.40237 6.83477 7.40237 7.21928 7.79289C7.6038 8.18342 7.6038 8.81658 7.21928 9.20711L5.45397 11H14.8923C15.4361 11 15.8769 11.4477 15.8769 12C15.8769 12.5523 15.4361 13 14.8923 13L5.45397 13L7.21928 14.7929Z" fill="#313F61"/>
</svg>
