<svg width="24" height="24" viewBox="0 0 24 24" fill="none" xmlns="http://www.w3.org/2000/svg">
<path d="M13.8241 13.0574C13.4242 13.1121 13.1121 13.4242 13.0574 13.8241C13.0259 14.0535 13 14.3027 13 14.5C13 14.6973 13.0259 14.9465 13.0574 15.1759C13.1121 15.5758 13.4242 15.8879 13.8241 15.9426C14.0535 15.9741 14.3027 16 14.5 16C14.6973 16 14.9465 15.9741 15.1759 15.9426C15.5758 15.8879 15.8879 15.5758 15.9426 15.1759C15.9741 14.9465 16 14.6973 16 14.5C16 14.3027 15.9741 14.0535 15.9426 13.8241C15.8879 13.4242 15.5758 13.1121 15.1759 13.0574C14.9465 13.0259 14.6973 13 14.5 13C14.3027 13 14.0535 13.0259 13.8241 13.0574Z" fill="#313F61"/>
<path d="M19.8241 19.0574C19.4242 19.1121 19.1121 19.4242 19.0574 19.8241C19.0259 20.0535 19 20.3027 19 20.5C19 20.6973 19.0259 20.9465 19.0574 21.1759C19.1121 21.5758 19.4242 21.8879 19.8241 21.9426C20.0535 21.9741 20.3027 22 20.5 22C20.6973 22 20.9465 21.9741 21.1759 21.9426C21.5758 21.8879 21.8879 21.5758 21.9426 21.1759C21.9741 20.9465 22 20.6973 22 20.5C22 20.3027 21.9741 20.0535 21.9426 19.8241C21.8879 19.4242 21.5758 19.1121 21.1759 19.0574C20.9465 19.0259 20.6973 19 20.5 19C20.3027 19 20.0535 19.0259 19.8241 19.0574Z" fill="#313F61"/>
<path d="M16.8241 16.0574C16.4242 16.1121 16.1121 16.4242 16.0574 16.8241C16.0259 17.0535 16 17.3027 16 17.5C16 17.6973 16.0259 17.9465 16.0574 18.1759C16.1121 18.5758 16.4242 18.8879 16.8241 18.9426C17.0535 18.9741 17.3027 19 17.5 19C17.6973 19 17.9465 18.9741 18.1759 18.9426C18.5758 18.8879 18.8879 18.5758 18.9426 18.1759C18.9741 17.9465 19 17.6973 19 17.5C19 17.3027 18.9741 17.0535 18.9426 16.8241C18.8879 16.4242 18.5758 16.1121 18.1759 16.0574C17.9465 16.0259 17.6973 16 17.5 16C17.3027 16 17.0535 16.0259 16.8241 16.0574Z" fill="#313F61"/>
<path d="M19.8241 13.0574C19.4242 13.1121 19.1121 13.4242 19.0574 13.8241C19.0259 14.0535 19 14.3027 19 14.5C19 14.6973 19.0259 14.9465 19.0574 15.1759C19.1121 15.5758 19.4242 15.8879 19.8241 15.9426C20.0535 15.9741 20.3027 16 20.5 16C20.6973 16 20.9465 15.9741 21.1759 15.9426C21.5758 15.8879 21.8879 15.5758 21.9426 15.1759C21.9741 14.9465 22 14.6973 22 14.5C22 14.3027 21.9741 14.0535 21.9426 13.8241C21.8879 13.4242 21.5758 13.1121 21.1759 13.0574C20.9465 13.0259 20.6973 13 20.5 13C20.3027 13 20.0535 13.0259 19.8241 13.0574Z" fill="#313F61"/>
<path d="M13.8241 19.0574C13.4242 19.1121 13.1121 19.4242 13.0574 19.8241C13.0259 20.0535 13 20.3027 13 20.5C13 20.6973 13.0259 20.9465 13.0574 21.1759C13.1121 21.5758 13.4242 21.8879 13.8241 21.9426C14.0535 21.9741 14.3027 22 14.5 22C14.6973 22 14.9465 21.9741 15.1759 21.9426C15.5758 21.8879 15.8879 21.5758 15.9426 21.1759C15.9741 20.9465 16 20.6973 16 20.5C16 20.3027 15.9741 20.0535 15.9426 19.8241C15.8879 19.4242 15.5758 19.1121 15.1759 19.0574C14.9465 19.0259 14.6973 19 14.5 19C14.3027 19 14.0535 19.0259 13.8241 19.0574Z" fill="#313F61"/>
<path fill-rule="evenodd" clip-rule="evenodd" d="M6.5 15C6.04782 15 5.40893 15.0625 4.74381 15.1536C4.43308 15.1962 4.19615 15.4331 4.15359 15.7438C4.0625 16.4089 4 17.0478 4 17.5C4 17.9522 4.0625 18.5911 4.15359 19.2562C4.19615 19.5669 4.43308 19.8038 4.74381 19.8464C5.40893 19.9375 6.04782 20 6.5 20C6.95218 20 7.59107 19.9375 8.25619 19.8464C8.56692 19.8038 8.80385 19.5669 8.84641 19.2562C8.9375 18.5911 9 17.9522 9 17.5C9 17.0478 8.9375 16.4089 8.84641 15.7438C8.80385 15.4331 8.56692 15.1962 8.25619 15.1536C7.59107 15.0625 6.95218 15 6.5 15ZM4.47244 13.1721C3.27253 13.3364 2.33642 14.2725 2.17209 15.4724C2.07784 16.1606 2 16.9082 2 17.5C2 18.0918 2.07784 18.8394 2.17209 19.5276C2.33642 20.7275 3.27253 21.6636 4.47244 21.8279C5.16065 21.9222 5.90816 22 6.5 22C7.09184 22 7.83935 21.9222 8.52756 21.8279C9.72747 21.6636 10.6636 20.7275 10.8279 19.5276C10.9222 18.8394 11 18.0918 11 17.5C11 16.9082 10.9222 16.1606 10.8279 15.4724C10.6636 14.2725 9.72747 13.3364 8.52756 13.1721C7.83935 13.0778 7.09184 13 6.5 13C5.90816 13 5.16065 13.0778 4.47244 13.1721Z" fill="#313F61"/>
<path fill-rule="evenodd" clip-rule="evenodd" d="M17.5 4C17.0478 4 16.4089 4.0625 15.7438 4.15359C15.4331 4.19615 15.1962 4.43308 15.1536 4.74381C15.0625 5.40893 15 6.04782 15 6.5C15 6.95218 15.0625 7.59107 15.1536 8.25619C15.1962 8.56692 15.4331 8.80385 15.7438 8.84641C16.4089 8.9375 17.0478 9 17.5 9C17.9522 9 18.5911 8.9375 19.2562 8.84641C19.5669 8.80385 19.8038 8.56692 19.8464 8.25619C19.9375 7.59107 20 6.95218 20 6.5C20 6.04782 19.9375 5.40893 19.8464 4.74381C19.8038 4.43308 19.5669 4.19615 19.2562 4.15359C18.5911 4.0625 17.9522 4 17.5 4ZM15.4724 2.17209C14.2725 2.33642 13.3364 3.27253 13.1721 4.47244C13.0778 5.16065 13 5.90816 13 6.5C13 7.09184 13.0778 7.83935 13.1721 8.52756C13.3364 9.72747 14.2725 10.6636 15.4724 10.8279C16.1606 10.9222 16.9082 11 17.5 11C18.0918 11 18.8394 10.9222 19.5276 10.8279C20.7275 10.6636 21.6636 9.72747 21.8279 8.52756C21.9222 7.83935 22 7.09184 22 6.5C22 5.90816 21.9222 5.16065 21.8279 4.47244C21.6636 3.27253 20.7275 2.33642 19.5276 2.17209C18.8394 2.07784 18.0918 2 17.5 2C16.9082 2 16.1606 2.07784 15.4724 2.17209Z" fill="#313F61"/>
<path fill-rule="evenodd" clip-rule="evenodd" d="M6.5 4C6.04782 4 5.40893 4.0625 4.74381 4.15359C4.43308 4.19615 4.19615 4.43308 4.15359 4.74381C4.0625 5.40893 4 6.04782 4 6.5C4 6.95218 4.0625 7.59107 4.15359 8.25619C4.19615 8.56692 4.43308 8.80385 4.74381 8.84641C5.40893 8.9375 6.04782 9 6.5 9C6.95218 9 7.59107 8.9375 8.25619 8.84641C8.56692 8.80385 8.80385 8.56692 8.84641 8.25619C8.9375 7.59107 9 6.95218 9 6.5C9 6.04782 8.9375 5.40893 8.84641 4.74381C8.80385 4.43308 8.56692 4.19615 8.25619 4.15359C7.59107 4.0625 6.95218 4 6.5 4ZM4.47244 2.17209C3.27253 2.33642 2.33642 3.27253 2.17209 4.47244C2.07784 5.16065 2 5.90816 2 6.5C2 7.09184 2.07784 7.83935 2.17209 8.52756C2.33642 9.72747 3.27253 10.6636 4.47244 10.8279C5.16065 10.9222 5.90816 11 6.5 11C7.09184 11 7.83935 10.9222 8.52756 10.8279C9.72747 10.6636 10.6636 9.72747 10.8279 8.52756C10.9222 7.83935 11 7.09184 11 6.5C11 5.90816 10.9222 5.16065 10.8279 4.47244C10.6636 3.27253 9.72747 2.33642 8.52756 2.17209C7.83935 2.07784 7.09184 2 6.5 2C5.90816 2 5.16065 2.07784 4.47244 2.17209Z" fill="#313F61"/>
</svg>
