<svg width="24" height="24" viewBox="0 0 24 24" fill="#fff" xmlns="http://www.w3.org/2000/svg">
<path d="M19.8895 18.8V8.96614L21.3668 9.85746C21.8378 10.1416 22.4486 9.98805 22.7312 9.51447C23.0138 9.04089 22.8611 8.42663 22.3901 8.14248L17.3959 5.12932L13.576 2.81504L13.5759 2.81498C13.2982 2.64676 13.0851 2.51765 12.9045 2.42057C12.8623 2.39686 12.8195 2.3748 12.7762 2.35441C12.6259 2.28065 12.4956 2.23155 12.3617 2.20189C12.0797 2.13941 11.7876 2.13941 11.5056 2.20189C11.3714 2.23163 11.2408 2.28091 11.09 2.35499C11.0474 2.37505 11.0054 2.39671 10.964 2.41996C10.7832 2.51711 10.5698 2.64639 10.2915 2.81496L10.2914 2.81501L6.46574 5.13278L1.4773 8.14248C1.00633 8.42663 0.853615 9.04089 1.13619 9.51447C1.41877 9.98805 2.02964 10.1416 2.5006 9.85746L3.97787 8.96618V18.8C3.97787 19.9202 3.97787 20.4802 4.19465 20.908C4.38534 21.2844 4.68961 21.5903 5.06386 21.7821C5.48932 22 6.04627 22 7.16019 22L8.95025 22V16C8.95025 14.3431 10.286 13 11.9337 13C13.5814 13 14.9171 14.3431 14.9171 16V22L16.7072 22C17.8211 22 18.378 22 18.8035 21.7821C19.1777 21.5903 19.482 21.2844 19.6727 20.908C19.8895 20.4802 19.8895 19.9202 19.8895 18.8Z" fill="#313F61"/>
</svg>
