<svg width="24" height="24" viewBox="0 0 24 24" fill="none" xmlns="http://www.w3.org/2000/svg">
<path fill-rule="evenodd" clip-rule="evenodd" d="M5.96673 13.7668C6.61109 13.1224 6.61109 12.0777 5.96673 11.4333C5.32236 10.789 4.27764 10.789 3.63327 11.4333L1.23327 13.8333C0.588909 14.4777 0.588909 15.5224 1.23327 16.1668L3.63327 18.5668C4.27764 19.2112 5.32236 19.2112 5.96673 18.5668C6.61109 17.9224 6.61109 16.8777 5.96673 16.2333L5.7334 16H15.6C16.1523 16 16.6 15.5523 16.6 15C16.6 14.4477 16.1523 14 15.6 14H5.7335L5.96673 13.7668Z" fill="#313F61"/>
<path fill-rule="evenodd" clip-rule="evenodd" d="M18.0433 7.7668C17.3989 7.12243 17.3989 6.07771 18.0433 5.43335C18.6876 4.78898 19.7324 4.78898 20.3767 5.43335L22.7767 7.83335C23.4211 8.47771 23.4211 9.52243 22.7767 10.1668L20.3767 12.5668C19.7324 13.2112 18.6876 13.2112 18.0433 12.5668C17.3989 11.9224 17.3989 10.8777 18.0433 10.2333L18.2766 10H8.41001C7.85773 10 7.41001 9.55231 7.41001 9.00002C7.41001 8.44774 7.85773 8.00002 8.41001 8.00002H18.2765L18.0433 7.7668Z" fill="#313F61"/>
</svg>
